<svg xmlns="http://www.w3.org/2000/svg" viewBox="0 0 640 780" role="img" aria-labelledby="title desc">
  <title id="title">CadenceCam Counter screen illustration</title>
  <desc id="desc">A phone screen showing a camera view, 12 reps, and a clear movement status.</desc>
  <defs>
    <clipPath id="camera"><rect x="38" y="104" width="564" height="282" rx="12"/></clipPath>
    <linearGradient id="wall" x2="0" y2="1"><stop stop-color="#4b514e"/><stop offset="1" stop-color="#202524"/></linearGradient>
  </defs>
  <rect width="640" height="780" rx="30" fill="#161618"/>
  <rect x="18" y="18" width="604" height="744" rx="22" fill="#202024" stroke="#3a3a40" stroke-width="2"/>
  <text x="48" y="68" fill="#e6e6e8" font-family="Arial, sans-serif" font-size="27" font-weight="600">Counter</text>
  <g stroke="#e6e6e8" stroke-width="4" stroke-linecap="round"><path d="M558 49h30M558 59h30M558 69h30"/></g>
  <g clip-path="url(#camera)">
    <rect x="38" y="104" width="564" height="282" fill="url(#wall)"/>
    <path d="M38 278h564v108H38z" fill="#353a37"/><path d="M38 326h564" stroke="#77756a" stroke-width="3"/>
    <path d="M95 210h80v10H95zm14-12h7v34h-7zm57 0h7v34h-7z" fill="#26292a"/>
    <circle cx="380" cy="173" r="34" fill="#ba8b69"/>
    <path d="M354 167q10-53 55-25l8 27-20-14-18 13z" fill="#343332"/>
    <path d="M352 211q32-26 65 0l33 80-44 28-68-38z" fill="#75816e"/>
    <path d="M367 218q-31 27-44 63l-43-22 9-17 25 6 30-43z" fill="#ba8b69"/>
    <path d="M422 222q23 33 34 54l-30 23-13-17 14-16-28-26z" fill="#ba8b69"/>
    <path d="M312 259h92" stroke="#b5b7b0" stroke-width="8" stroke-linecap="round"/>
    <rect x="300" y="247" width="18" height="24" rx="4" fill="#18191a"/><rect x="399" y="247" width="18" height="24" rx="4" fill="#18191a"/>
    <path d="M320 292l-28 55m82-30 30 41" stroke="#303a35" stroke-width="18" stroke-linecap="round"/>
    <path d="M38 245h564M320 104v282" stroke="#35c46a" stroke-width="2" opacity=".82"/>
  </g>
  <text x="320" y="474" text-anchor="middle" fill="#e6e6e8" font-family="Arial, sans-serif" font-size="110" font-weight="700">12</text>
  <text x="320" y="515" text-anchor="middle" fill="#a2a2ac" font-family="Arial, sans-serif" font-size="25">reps</text>
  <circle cx="320" cy="604" r="33" fill="#202024" stroke="#3a3a40" stroke-width="3"/>
  <path d="M312 588v32l25-16z" fill="#e6e6e8"/>
  <circle cx="320" cy="687" r="7" fill="#35c46a"/>
  <text x="339" y="695" fill="#a2a2ac" font-family="Arial, sans-serif" font-size="18">Movement found</text>
</svg>
